<?xml version="1.0" encoding="UTF-8"?>
<svg width="40px" height="39px" viewBox="0 0 40 39" version="1.1" xmlns="http://www.w3.org/2000/svg" xmlns:xlink="http://www.w3.org/1999/xlink">
    <title>line-messenger</title>
    <g id="Symbols" stroke="none" stroke-width="1" fill="none" fill-rule="evenodd">
        <g id="desktop_scrollable_social_share" transform="translate(-14.000000, -200.000000)">
            <g transform="translate(35.000000, 167.500000) rotate(90.000000) translate(-35.000000, -167.500000) translate(-132.000000, 133.000000)" id="Share">
                <g transform="translate(20.000000, 15.000000)">
                    <g id="line-messenger" transform="translate(199.000000, 20.882629) rotate(-90.000000) translate(-199.000000, -20.882629) translate(180.000000, 1.882629)">
                        <path d="M7.77726305,0 L30.2226364,0 C34.5001059,0 37.9998994,3.49979352 37.9998994,7.77726305 L37.9998994,30.2226364 C37.9998994,34.5001059 34.5001059,37.9998994 30.2226364,37.9998994 L7.77726305,37.9998994 C3.49979352,37.9998994 0,34.5002065 0,30.2226364 L0,7.77726305 C0,3.49979352 3.49979352,0 7.77726305,0 Z" id="Path" fill="#3ACE01"></path>
                        <path d="M18.9630828,6.29463898 C26.6626889,6.29463898 32.9044165,11.2927489 32.9044165,17.4582279 C32.9044165,19.6118 32.1423322,21.6225315 30.8230694,23.3278661 C30.7577853,23.4249373 30.6724833,23.5321682 30.5649506,23.6506655 L30.5568027,23.6595176 C30.1061509,24.1986902 29.5986648,24.7048686 29.0406815,25.172118 C25.1853962,28.7355862 18.8396565,32.9781504 18.0021283,32.3235989 C17.2740441,31.7546511 19.2012844,28.971776 16.977801,28.5086509 C16.8226882,28.4908461 16.6679779,28.4717337 16.5145752,28.4500058 L16.5116581,28.4498046 L16.5116581,28.4496035 C9.98113108,27.5218443 5.02184962,22.9538654 5.02184962,17.4582279 C5.02184962,11.2927489 11.2634767,6.29463898 18.9630828,6.29463898 L18.9630828,6.29463898 Z" id="Path" fill="#FFFFFF"></path>
                        <path d="M10.8742866,21.0190807 L13.6860315,21.0190807 C14.0859849,21.0190807 14.4131098,20.6918552 14.4131098,20.2919018 L14.4131098,20.2312449 C14.4131098,19.8312915 14.0859849,19.5041666 13.6860315,19.5041666 L11.6620218,19.5041666 L11.6620218,14.8991699 C11.6620218,14.4992164 11.3348969,14.1720916 10.9349435,14.1720916 L10.8742866,14.1720916 C10.4743332,14.1720916 10.1472083,14.4992164 10.1472083,14.8991699 L10.1472083,20.2918012 C10.1472083,20.6918552 10.4743332,21.0190807 10.8742866,21.0190807 L10.8742866,21.0190807 Z M28.2973073,17.6388909 L28.2973073,17.578234 C28.2973073,17.1782806 27.9700819,16.8511557 27.5701284,16.8511557 L25.5462193,16.8511557 L25.5462193,15.6998814 L27.5701284,15.6998814 C27.9700819,15.6998814 28.2973073,15.3727565 28.2973073,14.9728031 L28.2973073,14.9121462 C28.2973073,14.5121928 27.9700819,14.1850679 27.5701284,14.1850679 L24.7583835,14.1850679 C24.3584301,14.1850679 24.0313053,14.5121928 24.0313053,14.9121462 L24.0313053,20.3047776 C24.0313053,20.704731 24.3584301,21.0319565 24.7583835,21.0319565 L27.5701284,21.0319565 C27.9700819,21.0319565 28.2973073,20.704731 28.2973073,20.3047776 L28.2973073,20.2441207 C28.2973073,19.8441673 27.9700819,19.5170424 27.5701284,19.5170424 L25.5462193,19.5170424 L25.5462193,18.365768 L27.5701284,18.365768 C27.9700819,18.3659692 28.2973073,18.0387438 28.2973073,17.6388909 L28.2973073,17.6388909 Z M22.8899895,20.8023051 L22.8901907,20.8020034 C23.0247362,20.6663485 23.1002912,20.4830645 23.1004278,20.2920024 L23.1004278,14.899371 C23.1004278,14.4994176 22.7733029,14.1722928 22.3732489,14.1722928 L22.312592,14.1722928 C21.9126386,14.1722928 21.5855137,14.4994176 21.5855137,14.899371 L21.5855137,18.0648977 L18.9574496,14.5399562 C18.8319109,14.3207664 18.59552,14.1722928 18.3261348,14.1722928 L18.2654779,14.1722928 C17.8655245,14.1722928 17.538299,14.4994176 17.538299,14.899371 L17.538299,20.2920024 C17.538299,20.6919558 17.8654239,21.0191813 18.2654779,21.0191813 L18.3261348,21.0191813 C18.7260882,21.0191813 19.0532131,20.6919558 19.0532131,20.2920024 L19.0532131,17.0672272 L21.7001885,20.6826008 C21.7164844,20.7079499 21.7342891,20.7322932 21.7535022,20.7554293 L21.7536028,20.7556305 C21.8263307,20.8548141 21.9258161,20.9228142 22.0366684,20.9643587 C22.1218697,20.9995659 22.2150178,21.0190807 22.3124914,21.0190807 L22.3731483,21.0190807 C22.4916401,21.0191813 22.608319,20.9899858 22.7128472,20.9341811 C22.7855751,20.8995775 22.8468356,20.8549147 22.8899895,20.8023051 L22.8899895,20.8023051 Z M15.7270412,21.0190807 L15.7876981,21.0190807 C16.1876515,21.0190807 16.5147764,20.6918552 16.5147764,20.2919018 L16.5147764,14.8992704 C16.5147764,14.499317 16.1876515,14.1721922 15.7876981,14.1721922 L15.7270412,14.1721922 C15.3270878,14.1721922 14.9998623,14.499317 14.9998623,14.8992704 L14.9998623,20.2919018 C14.9998623,20.6918552 15.3270878,21.0190807 15.7270412,21.0190807 Z" id="Shape" fill="#3ACE01"></path>
                    </g>
                </g>
            </g>
        </g>
    </g>
</svg>